%TF.GenerationSoftware,KiCad,Pcbnew,10.0.6*%
%TF.CreationDate,2026-10-10T22:36:15+05:30*%
%TF.ProjectId,starbie,73746172-6269-4652-9e6b-696361645f70,rev?*%
%TF.SameCoordinates,Original*%
%TF.FileFunction,Copper,L1,Top*%
%TF.FilePolarity,Positive*%
%FSLAX46Y46*%
G04 Gerber Fmt 4.6, Leading zero omitted, Abs format (unit mm)*
G04 Created by KiCad (PCBNEW 10.0.6) date 2026-10-10 22:36:15*
%MOMM*%
%LPD*%
G01*
G04 APERTURE LIST*
G04 Aperture macros list*
%AMRoundRect*
0 Rectangle with rounded corners*
0 $1 Rounding radius*
0 $2 $3 $4 $5 $6 $7 $8 $9 X,Y pos of 4 corners*
0 Add a 4 corners polygon primitive as box body*
4,1,4,$2,$3,$4,$5,$6,$7,$8,$9,$2,$3,0*
0 Add four circle primitives for the rounded corners*
1,1,$1+$1,$2,$3*
1,1,$1+$1,$4,$5*
1,1,$1+$1,$6,$7*
1,1,$1+$1,$8,$9*
0 Add four rect primitives between the rounded corners*
20,1,$1+$1,$2,$3,$4,$5,0*
20,1,$1+$1,$4,$5,$6,$7,0*
20,1,$1+$1,$6,$7,$8,$9,0*
20,1,$1+$1,$8,$9,$2,$3,0*%
G04 Aperture macros list end*
%TA.AperFunction,ComponentPad*%
%ADD10C,1.400000*%
%TD*%
%TA.AperFunction,ComponentPad*%
%ADD11C,1.524000*%
%TD*%
%TA.AperFunction,SMDPad,CuDef*%
%ADD12RoundRect,0.152400X1.167101X0.375144X-0.913615X0.817414X-1.167101X-0.375144X0.913615X-0.817414X0*%
%TD*%
%TA.AperFunction,SMDPad,CuDef*%
%ADD13RoundRect,0.152400X-1.167101X-0.375144X0.913615X-0.817414X1.167101X0.375144X-0.913615X0.817414X0*%
%TD*%
%TA.AperFunction,ComponentPad*%
%ADD14R,1.500000X1.500000*%
%TD*%
%TA.AperFunction,ComponentPad*%
%ADD15C,1.500000*%
%TD*%
%TA.AperFunction,ComponentPad*%
%ADD16C,2.200000*%
%TD*%
%TA.AperFunction,ComponentPad*%
%ADD17R,1.700000X1.700000*%
%TD*%
%TA.AperFunction,ComponentPad*%
%ADD18C,1.700000*%
%TD*%
%TA.AperFunction,ComponentPad*%
%ADD19O,1.700000X1.700000*%
%TD*%
%TA.AperFunction,Conductor*%
%ADD20C,0.200000*%
%TD*%
G04 APERTURE END LIST*
D10*
%TO.P,R1,1*%
%TO.N,+3.3V*%
X121097500Y-60402500D03*
%TO.P,R1,2*%
%TO.N,/DHT11 DATA*%
X113477500Y-60402500D03*
%TD*%
D11*
%TO.P,U2,1,D0_1*%
%TO.N,unconnected-(U2-D0-Pad1)*%
X142812302Y-75962228D03*
D12*
%TO.N,unconnected-(U2-D0-Pad1)_1*%
X141995550Y-75788621D03*
%TO.P,U2,2,D1_2*%
%TO.N,/DHT11 DATA*%
X141467453Y-78273118D03*
D11*
X142284206Y-78446724D03*
D12*
%TO.P,U2,3,D2_3*%
%TO.N,/GPIO2*%
X140939358Y-80757612D03*
D11*
X141756112Y-80931218D03*
D12*
%TO.P,U2,4,D3_4*%
%TO.N,/GPIO3*%
X140411263Y-83242107D03*
D11*
X141228014Y-83415713D03*
D12*
%TO.P,U2,5,D4_5*%
%TO.N,/SCL*%
X139883166Y-85726603D03*
D11*
X140699920Y-85900207D03*
%TO.P,U2,6,D5_6*%
%TO.N,/SDA*%
X140171825Y-88384703D03*
D12*
X139355071Y-88211095D03*
D11*
%TO.P,U2,7,D6_7*%
%TO.N,unconnected-(U2-D6-Pad7)*%
X139643728Y-90869198D03*
D12*
%TO.N,unconnected-(U2-D6-Pad7)_1*%
X138826976Y-90695591D03*
D13*
%TO.P,U2,8,D7_8*%
%TO.N,unconnected-(U2-D7-Pad8)*%
X155367450Y-94211379D03*
D11*
%TO.N,unconnected-(U2-D7-Pad8)_1*%
X154550698Y-94037772D03*
%TO.P,U2,9,D8_9*%
%TO.N,unconnected-(U2-D8-Pad9)*%
X155078794Y-91553276D03*
D13*
%TO.N,unconnected-(U2-D8-Pad9)_1*%
X155895547Y-91726882D03*
D11*
%TO.P,U2,10,D9/BOOT_10*%
%TO.N,unconnected-(U2-D9{slash}BOOT-Pad10)_1*%
X155606888Y-89068782D03*
D13*
%TO.N,unconnected-(U2-D9{slash}BOOT-Pad10)*%
X156423642Y-89242388D03*
D11*
%TO.P,U2,11,D10_11*%
%TO.N,unconnected-(U2-D10-Pad11)*%
X156134986Y-86584287D03*
D13*
%TO.N,unconnected-(U2-D10-Pad11)_1*%
X156951737Y-86757893D03*
D11*
%TO.P,U2,12,3V3_OUT_12*%
%TO.N,+3.3V*%
X156663080Y-84099793D03*
D13*
X157479834Y-84273397D03*
%TO.P,U2,13,GND_13*%
%TO.N,GND*%
X158007929Y-81788905D03*
D11*
X157191175Y-81615297D03*
D13*
%TO.P,U2,14,VBUS_14*%
%TO.N,+5V*%
X158536024Y-79304409D03*
D11*
X157719272Y-79130802D03*
%TD*%
D14*
%TO.P,U1,1,VDD_1*%
%TO.N,+3.3V*%
X112287500Y-65902500D03*
D15*
%TO.P,U1,2,DATA_2*%
%TO.N,/DHT11 DATA*%
X114827500Y-65902500D03*
%TO.P,U1,3,NC_3*%
%TO.N,unconnected-(U1-NC-Pad3)*%
X117367500Y-65902500D03*
%TO.P,U1,4,GND_4*%
%TO.N,GND*%
X119907500Y-65902500D03*
%TD*%
D16*
%TO.P,SW2,1,1_1*%
%TO.N,/GPIO3*%
X95500000Y-121500000D03*
%TO.P,SW2,2,2_2*%
%TO.N,GND*%
X89150000Y-124040000D03*
%TD*%
%TO.P,SW1,1,1_1*%
%TO.N,/GPIO2*%
X84040000Y-84420000D03*
%TO.P,SW1,2,2_2*%
%TO.N,GND*%
X77690000Y-86960000D03*
%TD*%
D17*
%TO.P,J2,1,Pin_1_1*%
%TO.N,+3.3V*%
X138000000Y-118840000D03*
D18*
%TO.P,J2,2,Pin_2_2*%
%TO.N,GND*%
X138000000Y-121380000D03*
%TO.P,J2,3,Pin_3_3*%
%TO.N,/SCL*%
X138000000Y-123920000D03*
%TO.P,J2,4,Pin_4_4*%
%TO.N,/SDA*%
X138000000Y-126460000D03*
%TO.P,J2,5,Pin_5_5*%
%TO.N,unconnected-(J2-Pin_5-Pad5)*%
X138000000Y-129000000D03*
%TO.P,J2,6,Pin_6_6*%
%TO.N,unconnected-(J2-Pin_6-Pad6)*%
X138000000Y-131540000D03*
%TO.P,J2,7,Pin_7_7*%
%TO.N,unconnected-(J2-Pin_7-Pad7)*%
X138000000Y-134080000D03*
%TO.P,J2,8,Pin_8_8*%
%TO.N,unconnected-(J2-Pin_8-Pad8)*%
X138000000Y-136620000D03*
%TD*%
D17*
%TO.P,J1,1,Pin_1_1*%
%TO.N,GND*%
X112190000Y-78492000D03*
D19*
%TO.P,J1,2,Pin_2_2*%
%TO.N,+3.3V*%
X114730000Y-78492000D03*
%TO.P,J1,3,Pin_3_3*%
%TO.N,/SCL*%
X117270000Y-78492000D03*
%TO.P,J1,4,Pin_4_4*%
%TO.N,/SDA*%
X119810000Y-78492000D03*
%TD*%
%TO.N,GND*%
D20*
X90118500Y-123071500D02*
X89150000Y-124040000D01*
X136308500Y-123071500D02*
X90118500Y-123071500D01*
X138000000Y-121380000D02*
X136308500Y-123071500D01*
X112190000Y-78492000D02*
X111033300Y-78492000D01*
X150755200Y-81615300D02*
X157191200Y-81615300D01*
X135042400Y-65902500D02*
X150755200Y-81615300D01*
X119907500Y-65902500D02*
X135042400Y-65902500D01*
X83290300Y-81359700D02*
X77690000Y-86960000D01*
X108165600Y-81359700D02*
X83290300Y-81359700D01*
X111033300Y-78492000D02*
X108165600Y-81359700D01*
%TO.N,/SDA*%
X130685800Y-88211100D02*
X120966700Y-78492000D01*
X139355100Y-88211100D02*
X130685800Y-88211100D01*
X119810000Y-78492000D02*
X120966700Y-78492000D01*
%TO.N,/SCL*%
X118426700Y-78222400D02*
X118426700Y-78492000D01*
X119313800Y-77335300D02*
X118426700Y-78222400D01*
X131491900Y-77335300D02*
X119313800Y-77335300D01*
X139883200Y-85726600D02*
X131491900Y-77335300D01*
X117270000Y-78492000D02*
X118426700Y-78492000D01*
%TO.N,/GPIO2*%
X110453400Y-84420000D02*
X84040000Y-84420000D01*
X116000000Y-78873400D02*
X110453400Y-84420000D01*
X116000000Y-78099600D02*
X116000000Y-78873400D01*
X117184900Y-76914700D02*
X116000000Y-78099600D01*
X137096500Y-76914700D02*
X117184900Y-76914700D01*
X140939400Y-80757600D02*
X137096500Y-76914700D01*
%TO.N,/DHT11 DATA*%
X134025700Y-70831300D02*
X141467500Y-78273100D01*
X119756300Y-70831300D02*
X134025700Y-70831300D01*
X114827500Y-65902500D02*
X119756300Y-70831300D01*
%TO.N,+3.3V*%
X112287500Y-65902500D02*
X113344200Y-65902500D01*
X115965700Y-65534300D02*
X121097500Y-60402500D01*
X115220200Y-64788800D02*
X115965700Y-65534300D01*
X114325800Y-64788800D02*
X115220200Y-64788800D01*
X113344200Y-65770400D02*
X114325800Y-64788800D01*
X113344200Y-65902500D02*
X113344200Y-65770400D01*
X152547900Y-84099800D02*
X156663100Y-84099800D01*
X136631000Y-68182900D02*
X152547900Y-84099800D01*
X118146600Y-68182900D02*
X136631000Y-68182900D01*
X115965700Y-66002000D02*
X118146600Y-68182900D01*
X115965700Y-65534300D02*
X115965700Y-66002000D01*
%TD*%
M02*
