M48
; DRILL file KiCad 10.0.6 date 2026-10-10T22:36:21
; FORMAT={-:-/ absolute / metric / decimal}
; #@! TF.CreationDate,2026-10-10T22:36:21+05:30
; #@! TF.GenerationSoftware,Kicad,Pcbnew,10.0.6
; #@! TF.FileFunction,Plated,1,2,PTH
FMAT,2
METRIC
; #@! TA.AperFunction,Plated,PTH,ComponentDrill
T1C0.700
; #@! TA.AperFunction,Plated,PTH,ComponentDrill
T2C0.800
; #@! TA.AperFunction,Plated,PTH,ComponentDrill
T3C0.889
; #@! TA.AperFunction,Plated,PTH,ComponentDrill
T4C1.000
; #@! TA.AperFunction,Plated,PTH,ComponentDrill
T5C1.500
%
G90
G05
T1
X113.477Y-60.402
X121.097Y-60.402
T2
X112.287Y-65.903
X114.828Y-65.903
X117.367Y-65.903
X119.907Y-65.903
T3
X139.644Y-90.869
X140.172Y-88.385
X140.7Y-85.9
X141.228Y-83.416
X141.756Y-80.931
X142.284Y-78.447
X142.812Y-75.962
X154.551Y-94.038
X155.079Y-91.553
X155.607Y-89.069
X156.135Y-86.584
X156.663Y-84.1
X157.191Y-81.615
X157.719Y-79.131
T4
X112.19Y-78.492
X114.73Y-78.492
X117.27Y-78.492
X119.81Y-78.492
X138.0Y-118.84
X138.0Y-121.38
X138.0Y-123.92
X138.0Y-126.46
X138.0Y-129.0
X138.0Y-131.54
X138.0Y-134.08
X138.0Y-136.62
T5
X77.69Y-86.96
X84.04Y-84.42
X89.15Y-124.04
X95.5Y-121.5
M30
