%TF.GenerationSoftware,KiCad,Pcbnew,10.0.6*%
%TF.CreationDate,2026-10-10T22:36:15+05:30*%
%TF.ProjectId,starbie,73746172-6269-4652-9e6b-696361645f70,rev?*%
%TF.SameCoordinates,Original*%
%TF.FileFunction,Legend,Top*%
%TF.FilePolarity,Positive*%
%FSLAX46Y46*%
G04 Gerber Fmt 4.6, Leading zero omitted, Abs format (unit mm)*
G04 Created by KiCad (PCBNEW 10.0.6) date 2026-10-10 22:36:15*
%MOMM*%
%LPD*%
G01*
G04 APERTURE LIST*
%ADD10C,0.150000*%
%ADD11C,0.101600*%
%ADD12C,0.120000*%
%ADD13C,0.127000*%
%ADD14C,0.100000*%
%ADD15C,0.504000*%
%ADD16C,0.503998*%
G04 APERTURE END LIST*
D10*
X117120833Y-62777319D02*
X116787500Y-62301128D01*
X116549405Y-62777319D02*
X116549405Y-61777319D01*
X116549405Y-61777319D02*
X116930357Y-61777319D01*
X116930357Y-61777319D02*
X117025595Y-61824938D01*
X117025595Y-61824938D02*
X117073214Y-61872557D01*
X117073214Y-61872557D02*
X117120833Y-61967795D01*
X117120833Y-61967795D02*
X117120833Y-62110652D01*
X117120833Y-62110652D02*
X117073214Y-62205890D01*
X117073214Y-62205890D02*
X117025595Y-62253509D01*
X117025595Y-62253509D02*
X116930357Y-62301128D01*
X116930357Y-62301128D02*
X116549405Y-62301128D01*
X118073214Y-62777319D02*
X117501786Y-62777319D01*
X117787500Y-62777319D02*
X117787500Y-61777319D01*
X117787500Y-61777319D02*
X117692262Y-61920176D01*
X117692262Y-61920176D02*
X117597024Y-62015414D01*
X117597024Y-62015414D02*
X117501786Y-62063033D01*
D11*
X138189960Y-83392364D02*
X138692775Y-83499240D01*
X138692775Y-83499240D02*
X138758216Y-83482237D01*
X138758216Y-83482237D02*
X138794080Y-83458946D01*
X138794080Y-83458946D02*
X138836231Y-83406079D01*
X138836231Y-83406079D02*
X138861379Y-83287769D01*
X138861379Y-83287769D02*
X138844375Y-83222328D01*
X138844375Y-83222328D02*
X138821085Y-83186464D01*
X138821085Y-83186464D02*
X138768217Y-83144313D01*
X138768217Y-83144313D02*
X138265402Y-83037436D01*
X138381139Y-82783814D02*
X138357848Y-82747950D01*
X138357848Y-82747950D02*
X138340845Y-82682508D01*
X138340845Y-82682508D02*
X138372279Y-82534622D01*
X138372279Y-82534622D02*
X138414430Y-82481754D01*
X138414430Y-82481754D02*
X138450294Y-82458463D01*
X138450294Y-82458463D02*
X138515736Y-82441460D01*
X138515736Y-82441460D02*
X138574890Y-82454034D01*
X138574890Y-82454034D02*
X138657335Y-82502471D01*
X138657335Y-82502471D02*
X138936821Y-82932841D01*
X138936821Y-82932841D02*
X139018550Y-82548336D01*
D10*
X108242319Y-67664404D02*
X109051842Y-67664404D01*
X109051842Y-67664404D02*
X109147080Y-67616785D01*
X109147080Y-67616785D02*
X109194700Y-67569166D01*
X109194700Y-67569166D02*
X109242319Y-67473928D01*
X109242319Y-67473928D02*
X109242319Y-67283452D01*
X109242319Y-67283452D02*
X109194700Y-67188214D01*
X109194700Y-67188214D02*
X109147080Y-67140595D01*
X109147080Y-67140595D02*
X109051842Y-67092976D01*
X109051842Y-67092976D02*
X108242319Y-67092976D01*
X109242319Y-66092976D02*
X109242319Y-66664404D01*
X109242319Y-66378690D02*
X108242319Y-66378690D01*
X108242319Y-66378690D02*
X108385176Y-66473928D01*
X108385176Y-66473928D02*
X108480414Y-66569166D01*
X108480414Y-66569166D02*
X108528033Y-66664404D01*
X91626667Y-119113200D02*
X91769524Y-119160819D01*
X91769524Y-119160819D02*
X92007619Y-119160819D01*
X92007619Y-119160819D02*
X92102857Y-119113200D01*
X92102857Y-119113200D02*
X92150476Y-119065580D01*
X92150476Y-119065580D02*
X92198095Y-118970342D01*
X92198095Y-118970342D02*
X92198095Y-118875104D01*
X92198095Y-118875104D02*
X92150476Y-118779866D01*
X92150476Y-118779866D02*
X92102857Y-118732247D01*
X92102857Y-118732247D02*
X92007619Y-118684628D01*
X92007619Y-118684628D02*
X91817143Y-118637009D01*
X91817143Y-118637009D02*
X91721905Y-118589390D01*
X91721905Y-118589390D02*
X91674286Y-118541771D01*
X91674286Y-118541771D02*
X91626667Y-118446533D01*
X91626667Y-118446533D02*
X91626667Y-118351295D01*
X91626667Y-118351295D02*
X91674286Y-118256057D01*
X91674286Y-118256057D02*
X91721905Y-118208438D01*
X91721905Y-118208438D02*
X91817143Y-118160819D01*
X91817143Y-118160819D02*
X92055238Y-118160819D01*
X92055238Y-118160819D02*
X92198095Y-118208438D01*
X92531429Y-118160819D02*
X92769524Y-119160819D01*
X92769524Y-119160819D02*
X92960000Y-118446533D01*
X92960000Y-118446533D02*
X93150476Y-119160819D01*
X93150476Y-119160819D02*
X93388572Y-118160819D01*
X93721905Y-118256057D02*
X93769524Y-118208438D01*
X93769524Y-118208438D02*
X93864762Y-118160819D01*
X93864762Y-118160819D02*
X94102857Y-118160819D01*
X94102857Y-118160819D02*
X94198095Y-118208438D01*
X94198095Y-118208438D02*
X94245714Y-118256057D01*
X94245714Y-118256057D02*
X94293333Y-118351295D01*
X94293333Y-118351295D02*
X94293333Y-118446533D01*
X94293333Y-118446533D02*
X94245714Y-118589390D01*
X94245714Y-118589390D02*
X93674286Y-119160819D01*
X93674286Y-119160819D02*
X94293333Y-119160819D01*
X80166667Y-82033200D02*
X80309524Y-82080819D01*
X80309524Y-82080819D02*
X80547619Y-82080819D01*
X80547619Y-82080819D02*
X80642857Y-82033200D01*
X80642857Y-82033200D02*
X80690476Y-81985580D01*
X80690476Y-81985580D02*
X80738095Y-81890342D01*
X80738095Y-81890342D02*
X80738095Y-81795104D01*
X80738095Y-81795104D02*
X80690476Y-81699866D01*
X80690476Y-81699866D02*
X80642857Y-81652247D01*
X80642857Y-81652247D02*
X80547619Y-81604628D01*
X80547619Y-81604628D02*
X80357143Y-81557009D01*
X80357143Y-81557009D02*
X80261905Y-81509390D01*
X80261905Y-81509390D02*
X80214286Y-81461771D01*
X80214286Y-81461771D02*
X80166667Y-81366533D01*
X80166667Y-81366533D02*
X80166667Y-81271295D01*
X80166667Y-81271295D02*
X80214286Y-81176057D01*
X80214286Y-81176057D02*
X80261905Y-81128438D01*
X80261905Y-81128438D02*
X80357143Y-81080819D01*
X80357143Y-81080819D02*
X80595238Y-81080819D01*
X80595238Y-81080819D02*
X80738095Y-81128438D01*
X81071429Y-81080819D02*
X81309524Y-82080819D01*
X81309524Y-82080819D02*
X81500000Y-81366533D01*
X81500000Y-81366533D02*
X81690476Y-82080819D01*
X81690476Y-82080819D02*
X81928572Y-81080819D01*
X82833333Y-82080819D02*
X82261905Y-82080819D01*
X82547619Y-82080819D02*
X82547619Y-81080819D01*
X82547619Y-81080819D02*
X82452381Y-81223676D01*
X82452381Y-81223676D02*
X82357143Y-81318914D01*
X82357143Y-81318914D02*
X82261905Y-81366533D01*
X137666666Y-115914819D02*
X137666666Y-116629104D01*
X137666666Y-116629104D02*
X137619047Y-116771961D01*
X137619047Y-116771961D02*
X137523809Y-116867200D01*
X137523809Y-116867200D02*
X137380952Y-116914819D01*
X137380952Y-116914819D02*
X137285714Y-116914819D01*
X138095238Y-116010057D02*
X138142857Y-115962438D01*
X138142857Y-115962438D02*
X138238095Y-115914819D01*
X138238095Y-115914819D02*
X138476190Y-115914819D01*
X138476190Y-115914819D02*
X138571428Y-115962438D01*
X138571428Y-115962438D02*
X138619047Y-116010057D01*
X138619047Y-116010057D02*
X138666666Y-116105295D01*
X138666666Y-116105295D02*
X138666666Y-116200533D01*
X138666666Y-116200533D02*
X138619047Y-116343390D01*
X138619047Y-116343390D02*
X138047619Y-116914819D01*
X138047619Y-116914819D02*
X138666666Y-116914819D01*
X115438066Y-88818019D02*
X115438066Y-89532304D01*
X115438066Y-89532304D02*
X115390447Y-89675161D01*
X115390447Y-89675161D02*
X115295209Y-89770400D01*
X115295209Y-89770400D02*
X115152352Y-89818019D01*
X115152352Y-89818019D02*
X115057114Y-89818019D01*
X116438066Y-89818019D02*
X115866638Y-89818019D01*
X116152352Y-89818019D02*
X116152352Y-88818019D01*
X116152352Y-88818019D02*
X116057114Y-88960876D01*
X116057114Y-88960876D02*
X115961876Y-89056114D01*
X115961876Y-89056114D02*
X115866638Y-89103733D01*
X111656667Y-80153438D02*
X111590000Y-80105819D01*
X111590000Y-80105819D02*
X111490000Y-80105819D01*
X111490000Y-80105819D02*
X111390000Y-80153438D01*
X111390000Y-80153438D02*
X111323334Y-80248676D01*
X111323334Y-80248676D02*
X111290000Y-80343914D01*
X111290000Y-80343914D02*
X111256667Y-80534390D01*
X111256667Y-80534390D02*
X111256667Y-80677247D01*
X111256667Y-80677247D02*
X111290000Y-80867723D01*
X111290000Y-80867723D02*
X111323334Y-80962961D01*
X111323334Y-80962961D02*
X111390000Y-81058200D01*
X111390000Y-81058200D02*
X111490000Y-81105819D01*
X111490000Y-81105819D02*
X111556667Y-81105819D01*
X111556667Y-81105819D02*
X111656667Y-81058200D01*
X111656667Y-81058200D02*
X111690000Y-81010580D01*
X111690000Y-81010580D02*
X111690000Y-80677247D01*
X111690000Y-80677247D02*
X111556667Y-80677247D01*
X111990000Y-81105819D02*
X111990000Y-80105819D01*
X111990000Y-80105819D02*
X112390000Y-81105819D01*
X112390000Y-81105819D02*
X112390000Y-80105819D01*
X112723333Y-81105819D02*
X112723333Y-80105819D01*
X112723333Y-80105819D02*
X112890000Y-80105819D01*
X112890000Y-80105819D02*
X112990000Y-80153438D01*
X112990000Y-80153438D02*
X113056667Y-80248676D01*
X113056667Y-80248676D02*
X113090000Y-80343914D01*
X113090000Y-80343914D02*
X113123333Y-80534390D01*
X113123333Y-80534390D02*
X113123333Y-80677247D01*
X113123333Y-80677247D02*
X113090000Y-80867723D01*
X113090000Y-80867723D02*
X113056667Y-80962961D01*
X113056667Y-80962961D02*
X112990000Y-81058200D01*
X112990000Y-81058200D02*
X112890000Y-81105819D01*
X112890000Y-81105819D02*
X112723333Y-81105819D01*
X113796666Y-80105819D02*
X114030000Y-81105819D01*
X114030000Y-81105819D02*
X114263333Y-80105819D01*
X114496666Y-81105819D02*
X114496666Y-80105819D01*
X114496666Y-80105819D02*
X114663333Y-80105819D01*
X114663333Y-80105819D02*
X114763333Y-80153438D01*
X114763333Y-80153438D02*
X114830000Y-80248676D01*
X114830000Y-80248676D02*
X114863333Y-80343914D01*
X114863333Y-80343914D02*
X114896666Y-80534390D01*
X114896666Y-80534390D02*
X114896666Y-80677247D01*
X114896666Y-80677247D02*
X114863333Y-80867723D01*
X114863333Y-80867723D02*
X114830000Y-80962961D01*
X114830000Y-80962961D02*
X114763333Y-81058200D01*
X114763333Y-81058200D02*
X114663333Y-81105819D01*
X114663333Y-81105819D02*
X114496666Y-81105819D01*
X115196666Y-81105819D02*
X115196666Y-80105819D01*
X115196666Y-80105819D02*
X115363333Y-80105819D01*
X115363333Y-80105819D02*
X115463333Y-80153438D01*
X115463333Y-80153438D02*
X115530000Y-80248676D01*
X115530000Y-80248676D02*
X115563333Y-80343914D01*
X115563333Y-80343914D02*
X115596666Y-80534390D01*
X115596666Y-80534390D02*
X115596666Y-80677247D01*
X115596666Y-80677247D02*
X115563333Y-80867723D01*
X115563333Y-80867723D02*
X115530000Y-80962961D01*
X115530000Y-80962961D02*
X115463333Y-81058200D01*
X115463333Y-81058200D02*
X115363333Y-81105819D01*
X115363333Y-81105819D02*
X115196666Y-81105819D01*
X116436666Y-81058200D02*
X116536666Y-81105819D01*
X116536666Y-81105819D02*
X116703333Y-81105819D01*
X116703333Y-81105819D02*
X116769999Y-81058200D01*
X116769999Y-81058200D02*
X116803333Y-81010580D01*
X116803333Y-81010580D02*
X116836666Y-80915342D01*
X116836666Y-80915342D02*
X116836666Y-80820104D01*
X116836666Y-80820104D02*
X116803333Y-80724866D01*
X116803333Y-80724866D02*
X116769999Y-80677247D01*
X116769999Y-80677247D02*
X116703333Y-80629628D01*
X116703333Y-80629628D02*
X116569999Y-80582009D01*
X116569999Y-80582009D02*
X116503333Y-80534390D01*
X116503333Y-80534390D02*
X116469999Y-80486771D01*
X116469999Y-80486771D02*
X116436666Y-80391533D01*
X116436666Y-80391533D02*
X116436666Y-80296295D01*
X116436666Y-80296295D02*
X116469999Y-80201057D01*
X116469999Y-80201057D02*
X116503333Y-80153438D01*
X116503333Y-80153438D02*
X116569999Y-80105819D01*
X116569999Y-80105819D02*
X116736666Y-80105819D01*
X116736666Y-80105819D02*
X116836666Y-80153438D01*
X117536666Y-81010580D02*
X117503333Y-81058200D01*
X117503333Y-81058200D02*
X117403333Y-81105819D01*
X117403333Y-81105819D02*
X117336666Y-81105819D01*
X117336666Y-81105819D02*
X117236666Y-81058200D01*
X117236666Y-81058200D02*
X117170000Y-80962961D01*
X117170000Y-80962961D02*
X117136666Y-80867723D01*
X117136666Y-80867723D02*
X117103333Y-80677247D01*
X117103333Y-80677247D02*
X117103333Y-80534390D01*
X117103333Y-80534390D02*
X117136666Y-80343914D01*
X117136666Y-80343914D02*
X117170000Y-80248676D01*
X117170000Y-80248676D02*
X117236666Y-80153438D01*
X117236666Y-80153438D02*
X117336666Y-80105819D01*
X117336666Y-80105819D02*
X117403333Y-80105819D01*
X117403333Y-80105819D02*
X117503333Y-80153438D01*
X117503333Y-80153438D02*
X117536666Y-80201057D01*
X118170000Y-81105819D02*
X117836666Y-81105819D01*
X117836666Y-81105819D02*
X117836666Y-80105819D01*
X119087000Y-81058200D02*
X119187000Y-81105819D01*
X119187000Y-81105819D02*
X119353667Y-81105819D01*
X119353667Y-81105819D02*
X119420333Y-81058200D01*
X119420333Y-81058200D02*
X119453667Y-81010580D01*
X119453667Y-81010580D02*
X119487000Y-80915342D01*
X119487000Y-80915342D02*
X119487000Y-80820104D01*
X119487000Y-80820104D02*
X119453667Y-80724866D01*
X119453667Y-80724866D02*
X119420333Y-80677247D01*
X119420333Y-80677247D02*
X119353667Y-80629628D01*
X119353667Y-80629628D02*
X119220333Y-80582009D01*
X119220333Y-80582009D02*
X119153667Y-80534390D01*
X119153667Y-80534390D02*
X119120333Y-80486771D01*
X119120333Y-80486771D02*
X119087000Y-80391533D01*
X119087000Y-80391533D02*
X119087000Y-80296295D01*
X119087000Y-80296295D02*
X119120333Y-80201057D01*
X119120333Y-80201057D02*
X119153667Y-80153438D01*
X119153667Y-80153438D02*
X119220333Y-80105819D01*
X119220333Y-80105819D02*
X119387000Y-80105819D01*
X119387000Y-80105819D02*
X119487000Y-80153438D01*
X119787000Y-81105819D02*
X119787000Y-80105819D01*
X119787000Y-80105819D02*
X119953667Y-80105819D01*
X119953667Y-80105819D02*
X120053667Y-80153438D01*
X120053667Y-80153438D02*
X120120334Y-80248676D01*
X120120334Y-80248676D02*
X120153667Y-80343914D01*
X120153667Y-80343914D02*
X120187000Y-80534390D01*
X120187000Y-80534390D02*
X120187000Y-80677247D01*
X120187000Y-80677247D02*
X120153667Y-80867723D01*
X120153667Y-80867723D02*
X120120334Y-80962961D01*
X120120334Y-80962961D02*
X120053667Y-81058200D01*
X120053667Y-81058200D02*
X119953667Y-81105819D01*
X119953667Y-81105819D02*
X119787000Y-81105819D01*
X120453667Y-80820104D02*
X120787000Y-80820104D01*
X120387000Y-81105819D02*
X120620334Y-80105819D01*
X120620334Y-80105819D02*
X120853667Y-81105819D01*
%TO.C,R1*%
D12*
X114417500Y-60402500D02*
X115367500Y-60402500D01*
X120157500Y-60402500D02*
X119207500Y-60402500D01*
X115367500Y-59482500D02*
X119207500Y-59482500D01*
X119207500Y-61322500D01*
X115367500Y-61322500D01*
X115367500Y-59482500D01*
%TO.C,U2*%
D13*
X138216647Y-91474723D02*
X141781293Y-74704382D01*
X139683947Y-93734166D02*
X153348669Y-96638693D01*
X146476323Y-73754783D02*
X146690018Y-72767362D01*
X147282990Y-72382511D02*
X155103547Y-74044822D01*
X155488665Y-74637851D02*
X155278673Y-75625781D01*
X155608112Y-95171392D02*
X159172758Y-78401053D01*
D14*
X157705458Y-76141609D02*
X144040736Y-73237083D01*
D13*
X157705458Y-76141609D02*
X144040736Y-73237083D01*
X139683947Y-93734166D02*
G75*
G02*
X138216648Y-91474723I396073J1863372D01*
G01*
X141781293Y-74704382D02*
G75*
G02*
X144040736Y-73237083I1863371J-396072D01*
G01*
X146690018Y-72767362D02*
G75*
G02*
X147282984Y-72382539I488989J-104217D01*
G01*
X155103547Y-74044822D02*
G75*
G02*
X155488664Y-74637851I-103956J-489073D01*
G01*
X155608112Y-95171392D02*
G75*
G02*
X153348669Y-96638694I-1863374J396073D01*
G01*
X157705458Y-76141609D02*
G75*
G02*
X159172757Y-78401053I-396072J-1863371D01*
G01*
D15*
X142320569Y-73064270D02*
G75*
G02*
X141816569Y-73064270I-252000J0D01*
G01*
X141816569Y-73064270D02*
G75*
G02*
X142320569Y-73064270I252000J0D01*
G01*
D16*
X143255629Y-74162683D02*
G75*
G02*
X142751631Y-74162683I-251999J0D01*
G01*
X142751631Y-74162683D02*
G75*
G02*
X143255629Y-74162683I251999J0D01*
G01*
%TO.C,U1*%
D12*
X109687500Y-69062500D02*
X109687500Y-67452500D01*
X109687500Y-69062500D02*
X111687500Y-69062500D01*
X109967500Y-63022500D02*
X122227500Y-63022500D01*
X109967500Y-68772500D02*
X109967500Y-63032500D01*
X122227500Y-63022500D02*
X122227500Y-68782500D01*
X122227500Y-68782500D02*
X109977500Y-68782500D01*
%TO.C,SW2*%
X85975000Y-119595000D02*
X99945000Y-119595000D01*
X85975000Y-133565000D02*
X85975000Y-119595000D01*
X99945000Y-119595000D02*
X99945000Y-133565000D01*
X99945000Y-133565000D02*
X85975000Y-133565000D01*
%TO.C,SW1*%
X74515000Y-82515000D02*
X88485000Y-82515000D01*
X74515000Y-96485000D02*
X74515000Y-82515000D01*
X88485000Y-82515000D02*
X88485000Y-96485000D01*
X88485000Y-96485000D02*
X74515000Y-96485000D01*
%TO.C,J2*%
X136620000Y-117460000D02*
X138000000Y-117460000D01*
X136620000Y-118840000D02*
X136620000Y-117460000D01*
X136620000Y-120110000D02*
X136620000Y-138000000D01*
X136620000Y-120110000D02*
X139380000Y-120110000D01*
X136620000Y-138000000D02*
X139380000Y-138000000D01*
X139380000Y-120110000D02*
X139380000Y-138000000D01*
%TO.C,J1*%
X102284000Y-77095000D02*
X129716000Y-77095000D01*
X102284000Y-82302000D02*
X129716000Y-82302000D01*
X102284000Y-99193000D02*
X129716000Y-99193000D01*
X102284000Y-104273000D02*
X102411000Y-77095000D01*
X110860000Y-79822000D02*
X110860000Y-78492000D01*
X112190000Y-79822000D02*
X110860000Y-79822000D01*
X113460000Y-77162000D02*
X121140000Y-77162000D01*
X113460000Y-79822000D02*
X113460000Y-77162000D01*
X113460000Y-79822000D02*
X121140000Y-79822000D01*
X121140000Y-79822000D02*
X121140000Y-77162000D01*
X129716000Y-104273000D02*
X102284000Y-104273000D01*
X129716000Y-104273000D02*
X129716000Y-77095000D01*
%TD*%
M02*
