%TF.GenerationSoftware,KiCad,Pcbnew,10.0.6*%
%TF.CreationDate,2026-10-10T22:36:15+05:30*%
%TF.ProjectId,starbie,73746172-6269-4652-9e6b-696361645f70,rev?*%
%TF.SameCoordinates,Original*%
%TF.FileFunction,Soldermask,Top*%
%TF.FilePolarity,Negative*%
%FSLAX46Y46*%
G04 Gerber Fmt 4.6, Leading zero omitted, Abs format (unit mm)*
G04 Created by KiCad (PCBNEW 10.0.6) date 2026-10-10 22:36:15*
%MOMM*%
%LPD*%
G01*
G04 APERTURE LIST*
G04 Aperture macros list*
%AMRoundRect*
0 Rectangle with rounded corners*
0 $1 Rounding radius*
0 $2 $3 $4 $5 $6 $7 $8 $9 X,Y pos of 4 corners*
0 Add a 4 corners polygon primitive as box body*
4,1,4,$2,$3,$4,$5,$6,$7,$8,$9,$2,$3,0*
0 Add four circle primitives for the rounded corners*
1,1,$1+$1,$2,$3*
1,1,$1+$1,$4,$5*
1,1,$1+$1,$6,$7*
1,1,$1+$1,$8,$9*
0 Add four rect primitives between the rounded corners*
20,1,$1+$1,$2,$3,$4,$5,0*
20,1,$1+$1,$4,$5,$6,$7,0*
20,1,$1+$1,$6,$7,$8,$9,0*
20,1,$1+$1,$8,$9,$2,$3,0*%
G04 Aperture macros list end*
%ADD10C,1.400000*%
%ADD11C,1.524000*%
%ADD12RoundRect,0.152400X1.167101X0.375144X-0.913615X0.817414X-1.167101X-0.375144X0.913615X-0.817414X0*%
%ADD13RoundRect,0.152400X-1.167101X-0.375144X0.913615X-0.817414X1.167101X0.375144X-0.913615X0.817414X0*%
%ADD14R,1.500000X1.500000*%
%ADD15C,1.500000*%
%ADD16C,1.700000*%
%ADD17C,4.000000*%
%ADD18C,2.200000*%
%ADD19R,1.700000X1.700000*%
%ADD20O,3.800000X2.900000*%
%ADD21O,1.700000X1.700000*%
G04 APERTURE END LIST*
D10*
%TO.C,R1*%
X121097500Y-60402500D03*
X113477500Y-60402500D03*
%TD*%
D11*
%TO.C,U2*%
X142812302Y-75962228D03*
D12*
X141995550Y-75788621D03*
X141467453Y-78273118D03*
D11*
X142284206Y-78446724D03*
D12*
X140939358Y-80757612D03*
D11*
X141756112Y-80931218D03*
D12*
X140411263Y-83242107D03*
D11*
X141228014Y-83415713D03*
D12*
X139883166Y-85726603D03*
D11*
X140699920Y-85900207D03*
X140171825Y-88384703D03*
D12*
X139355071Y-88211095D03*
D11*
X139643728Y-90869198D03*
D12*
X138826976Y-90695591D03*
D13*
X155367450Y-94211379D03*
D11*
X154550698Y-94037772D03*
X155078794Y-91553276D03*
D13*
X155895547Y-91726882D03*
D11*
X155606888Y-89068782D03*
D13*
X156423642Y-89242388D03*
D11*
X156134986Y-86584287D03*
D13*
X156951737Y-86757893D03*
D11*
X156663080Y-84099793D03*
D13*
X157479834Y-84273397D03*
X158007929Y-81788905D03*
D11*
X157191175Y-81615297D03*
D13*
X158536024Y-79304409D03*
D11*
X157719272Y-79130802D03*
%TD*%
D14*
%TO.C,U1*%
X112287500Y-65902500D03*
D15*
X114827500Y-65902500D03*
X117367500Y-65902500D03*
X119907500Y-65902500D03*
%TD*%
D16*
%TO.C,SW2*%
X87880000Y-126580000D03*
D17*
X92960000Y-126580000D03*
D16*
X98040000Y-126580000D03*
D18*
X95500000Y-121500000D03*
X89150000Y-124040000D03*
%TD*%
D16*
%TO.C,SW1*%
X76420000Y-89500000D03*
D17*
X81500000Y-89500000D03*
D16*
X86580000Y-89500000D03*
D18*
X84040000Y-84420000D03*
X77690000Y-86960000D03*
%TD*%
D19*
%TO.C,J2*%
X138000000Y-118840000D03*
D16*
X138000000Y-121380000D03*
X138000000Y-123920000D03*
X138000000Y-126460000D03*
X138000000Y-129000000D03*
X138000000Y-131540000D03*
X138000000Y-134080000D03*
X138000000Y-136620000D03*
%TD*%
D20*
%TO.C,J1*%
X104824000Y-79127000D03*
X104824000Y-102241000D03*
X127176000Y-79127000D03*
X127176000Y-102241000D03*
D19*
X112190000Y-78492000D03*
D21*
X114730000Y-78492000D03*
X117270000Y-78492000D03*
X119810000Y-78492000D03*
%TD*%
M02*
